# xmcd CD database file
#
# Track frame offsets:
#	150
#	13334
#	24724
#	57266
#	78803
#	95857
#	124434
#	131299
#	142683
#	171008
#	181022
#	191343
#	214809
#	274679
#
# Disc length: 3886 seconds
#
# Revision: 0
# Processed by: cddbd v1.5.2PL0 Copyright (c) Steve Scherf et al.
# Submitted via: CDex 1.70beta2
#
DISCID=bd0f2c0e
DTITLE=The New Columbian Brass Band - Music from America's Golden Age
DYEAR=2002
DGENRE=Jazz
TTITLE0=National Emblem
TTITLE1=Teddy Trombone
TTITLE2=Carnival of Venice
TTITLE3=American Patrol
TTITLE4=Ben Buxton's Two-Step
TTITLE5=Light Calvary Overture
TTITLE6=L'Encore
TTITLE7=The Melody Shop
TTITLE8=All Those Endearing Young Charms
TTITLE9=An Arkansas Huskin' Bee
TTITLE10=Billboard March
TTITLE11=The Elephant and the Fly
TTITLE12=The Death of Custer
TTITLE13=The Stars and Stars Forever
EXTD=YEAR: 2002
EXTT0=
EXTT1=
EXTT2=
EXTT3=
EXTT4=
EXTT5=
EXTT6=
EXTT7=
EXTT8=
EXTT9=
EXTT10=
EXTT11=
EXTT12=
EXTT13=
PLAYORDER=
